<svg xmlns="http://www.w3.org/2000/svg" viewBox="0 0 400 400">
  <g fill="none" stroke="#ffffff">
    <!-- Left alpaca ear -->
    <g transform="rotate(-30 200 200)" fill="#ffffff" stroke="none">
      <path d="M 172 64 C 162 42 150 10 170 -2 C 182 -8 196 -2 198 12 C 198 30 192 48 188 64 Z"/>
    </g>
    <!-- Right alpaca ear -->
    <g transform="rotate(30 200 200)" fill="#ffffff" stroke="none">
      <path d="M 228 64 C 238 42 250 10 230 -2 C 218 -8 204 -2 202 12 C 202 30 208 48 212 64 Z"/>
    </g>
    <!-- Stopwatch crown -->
    <g fill="#ffffff" stroke="none">
      <rect x="178" y="12" width="44" height="22" rx="11"/>
      <rect x="189" y="32" width="22" height="22"/>
    </g>
    <!-- Ring (open-gap 80% circle) -->
    <path d="M 282.29 313.26 A 140 140 0 1 0 117.71 313.26" stroke-width="26" stroke-linecap="round"/>
    <!-- Hour ticks -->
    <g>
      <line x1="200.00" y1="88.00" x2="200.00" y2="74.00" stroke-width="6" stroke-linecap="round"/>
      <line x1="256.00" y1="103.01" x2="263.00" y2="90.88" stroke-width="6" stroke-linecap="round"/>
      <line x1="296.99" y1="144.00" x2="309.12" y2="137.00" stroke-width="6" stroke-linecap="round"/>
      <line x1="312.00" y1="200.00" x2="326.00" y2="200.00" stroke-width="6" stroke-linecap="round"/>
      <line x1="296.99" y1="256.00" x2="309.12" y2="263.00" stroke-width="6" stroke-linecap="round"/>
      <line x1="103.01" y1="256.00" x2="90.88" y2="263.00" stroke-width="6" stroke-linecap="round"/>
      <line x1="88.00" y1="200.00" x2="74.00" y2="200.00" stroke-width="6" stroke-linecap="round"/>
      <line x1="103.01" y1="144.00" x2="90.88" y2="137.00" stroke-width="6" stroke-linecap="round"/>
      <line x1="144.00" y1="103.01" x2="137.00" y2="90.88" stroke-width="6" stroke-linecap="round"/>
    </g>
    <!-- Minute hand at 12 (long) -->
    <line x1="200" y1="200" x2="200.00" y2="90.00" stroke-width="16" stroke-linecap="round"/>
    <!-- Hour hand at 2 (short) -->
    <line x1="200" y1="200" x2="264.95" y2="162.50" stroke-width="18" stroke-linecap="round"/>
    <!-- Center pin -->
    <circle cx="200" cy="200" r="12" fill="#ffffff" stroke="none"/>
    <!-- Cria wordmark (Poppins Bold, size 44, per-letter nudged rotation) -->
    <g fill="#ffffff" stroke="none">
      <path d="M 1.45 -15.49 Q 1.45 -20.06 3.43 -23.65 Q 5.41 -27.24 8.95 -29.24 Q 12.50 -31.24 16.98 -31.24 Q 22.48 -31.24 26.40 -28.33 Q 30.32 -25.43 31.64 -20.42 L 23.36 -20.42 Q 22.44 -22.35 20.74 -23.36 Q 19.05 -24.38 16.90 -24.38 Q 13.42 -24.38 11.26 -21.96 Q 9.11 -19.54 9.11 -15.49 Q 9.11 -11.44 11.26 -9.02 Q 13.42 -6.60 16.90 -6.60 Q 19.05 -6.60 20.74 -7.61 Q 22.44 -8.62 23.36 -10.56 L 31.64 -10.56 Q 30.32 -5.54 26.40 -2.66 Q 22.48 0.22 16.98 0.22 Q 12.50 0.22 8.95 -1.78 Q 5.41 -3.78 3.43 -7.34 Q 1.45 -10.91 1.45 -15.49 Z" transform="translate(151.65 292.00) rotate(-5 15.82 -15.51)"/>
      <path d="M 10.25 -20.46 Q 11.57 -22.48 13.55 -23.65 Q 15.53 -24.82 17.95 -24.82 L 17.95 -16.85 L 15.88 -16.85 Q 13.07 -16.85 11.66 -15.64 Q 10.25 -14.43 10.25 -11.40 L 10.25 -0.00 L 2.73 -0.00 L 2.73 -24.55 L 10.25 -24.55 L 10.25 -20.46 Z" transform="translate(186.29 292.00) rotate(4 8.98 -12.41)"/>
      <path d="M 6.51 -27.10 Q 4.53 -27.10 3.27 -28.27 Q 2.02 -29.44 2.02 -31.15 Q 2.02 -32.91 3.27 -34.07 Q 4.53 -35.24 6.51 -35.24 Q 8.45 -35.24 9.70 -34.07 Q 10.96 -32.91 10.96 -31.15 Q 10.96 -29.44 9.70 -28.27 Q 8.45 -27.10 6.51 -27.10 Z M 10.25 -24.55 L 10.25 -0.00 L 2.73 -0.00 L 2.73 -24.55 L 10.25 -24.55 Z" transform="translate(207.24 292.00) rotate(-4 5.48 -17.62)"/>
      <path d="M 1.23 -12.32 Q 1.23 -16.10 2.66 -18.96 Q 4.09 -21.82 6.55 -23.36 Q 9.02 -24.90 12.06 -24.90 Q 14.65 -24.90 16.61 -23.84 Q 18.57 -22.79 19.62 -21.08 L 19.62 -24.55 L 27.15 -24.55 L 27.15 -0.00 L 19.62 -0.00 L 19.62 -3.48 Q 18.52 -1.76 16.56 -0.70 Q 14.61 0.35 12.01 0.35 Q 9.02 0.35 6.55 -1.21 Q 4.09 -2.77 2.66 -5.65 Q 1.23 -8.54 1.23 -12.32 Z M 19.62 -12.28 Q 19.62 -15.09 18.06 -16.72 Q 16.50 -18.35 14.26 -18.35 Q 12.01 -18.35 10.45 -16.74 Q 8.89 -15.14 8.89 -12.32 Q 8.89 -9.50 10.45 -7.85 Q 12.01 -6.20 14.26 -6.20 Q 16.50 -6.20 18.06 -7.83 Q 19.62 -9.46 19.62 -12.28 Z" transform="translate(221.20 292.00) rotate(5 13.57 -12.28)"/>
    </g>
  </g>
</svg>
